<svg width="23" height="20" viewBox="0 0 23 20" fill="none" xmlns="http://www.w3.org/2000/svg">
<path d="M10.0588 5.32439L10.8098 1.64716C10.8645 1.37995 10.9692 1.12655 11.1181 0.901437C11.2669 0.676327 11.4569 0.483915 11.6773 0.335195C11.8977 0.186474 12.144 0.0843576 12.4024 0.0346782C12.6607 -0.0150012 12.9259 -0.0112701 13.1828 0.0456582L16.3788 0.752816C16.6734 0.41257 17.0678 0.182933 17.5007 0.0995214C17.9336 0.0161102 18.3809 0.0835871 18.7732 0.291486C19.1655 0.499386 19.4808 0.836088 19.6703 1.24937C19.8598 1.66265 19.9129 2.12941 19.8213 2.57726C19.7297 3.02511 19.4986 3.42902 19.1637 3.72633C18.8289 4.02364 18.4091 4.19775 17.9694 4.22164C17.5297 4.24553 17.0948 4.11788 16.732 3.85847C16.3692 3.59907 16.0988 3.22242 15.9628 2.78694L12.7668 2.07978L12.1008 5.33998C13.8848 5.48246 15.6578 6.09914 17.2638 7.10788C17.7411 6.83193 18.2784 6.68792 18.8244 6.6896C19.3705 6.69129 19.907 6.83862 20.3826 7.11751C20.8583 7.39639 21.2572 7.79751 21.5412 8.28251C21.8252 8.76751 21.9848 9.32016 22.0048 9.88764V9.90948C22.0125 10.4181 21.9076 10.9218 21.6983 11.3816C21.4891 11.8414 21.181 12.245 20.7978 12.5613C20.796 12.604 20.7934 12.6467 20.7898 12.6892C20.7898 16.8469 16.3398 20 10.9908 20C5.65882 20 1.28282 16.8552 1.28582 12.7693C1.28146 12.7066 1.27813 12.6439 1.27582 12.5811C0.629939 12.0769 0.191826 11.3369 0.0497761 10.5101C-0.092274 9.68339 0.0722987 8.83138 0.510328 8.1258C0.948358 7.42023 1.62728 6.91354 2.41028 6.70786C3.19327 6.50218 4.02213 6.61279 4.72982 7.01741C6.34493 6.00517 8.1755 5.4236 10.0588 5.32439ZM19.3448 11.0711C19.7528 10.86 20.0088 10.4263 20.0058 9.95315C19.9954 9.71521 19.9193 9.48542 19.7866 9.29128C19.6539 9.09714 19.4702 8.94687 19.2576 8.85844C19.0449 8.77002 18.8122 8.74719 18.5874 8.79268C18.3626 8.83817 18.1551 8.95006 17.9898 9.11496L17.4048 9.69733L16.7348 9.22416C15.1198 8.0823 13.2828 7.43026 11.5048 7.3897H10.4988C8.62382 7.41986 6.84782 8.01367 5.26182 9.1316L4.59882 9.59957L4.01482 9.02761C3.88888 8.90467 3.73876 8.81167 3.57484 8.75504C3.41092 8.69841 3.23712 8.6795 3.06548 8.69963C2.89384 8.71975 2.72846 8.77843 2.58078 8.8716C2.4331 8.96477 2.30666 9.0902 2.2102 9.23921C2.11375 9.38822 2.04959 9.55725 2.02216 9.7346C1.99473 9.91194 2.00469 10.0934 2.05136 10.2663C2.09802 10.4393 2.18027 10.5996 2.29241 10.7362C2.40455 10.8728 2.54391 10.9825 2.70082 11.0576L3.33382 11.3591L3.27982 12.0819C3.26682 12.2587 3.26682 12.4344 3.28282 12.6892C3.28282 15.5075 6.63882 17.9201 10.9908 17.9201C15.3618 17.9201 18.7898 15.4908 18.7928 12.6102C18.8058 12.4344 18.8058 12.2577 18.7928 12.0819L18.7408 11.3831L19.3448 11.0711ZM5.95682 11.2364C5.95682 10.8227 6.11486 10.426 6.39616 10.1334C6.67747 9.84088 7.059 9.67653 7.45682 9.67653C7.85465 9.67653 8.23618 9.84088 8.51748 10.1334C8.79879 10.426 8.95682 10.8227 8.95682 11.2364C8.95682 11.6502 8.79879 12.0469 8.51748 12.3395C8.23618 12.632 7.85465 12.7963 7.45682 12.7963C7.059 12.7963 6.67747 12.632 6.39616 12.3395C6.11486 12.0469 5.95682 11.6502 5.95682 11.2364ZM12.9568 11.2364C12.9568 10.8227 13.1149 10.426 13.3962 10.1334C13.6775 9.84088 14.059 9.67653 14.4568 9.67653C14.8546 9.67653 15.2362 9.84088 15.5175 10.1334C15.7988 10.426 15.9568 10.8227 15.9568 11.2364C15.9568 11.6502 15.7988 12.0469 15.5175 12.3395C15.2362 12.632 14.8546 12.7963 14.4568 12.7963C14.059 12.7963 13.6775 12.632 13.3962 12.3395C13.1149 12.0469 12.9568 11.6502 12.9568 11.2364ZM10.9728 16.5432C9.57582 16.5432 8.20582 16.1585 7.09082 15.2849C7.02347 15.2004 6.98888 15.0927 6.99382 14.983C6.99876 14.8733 7.04288 14.7695 7.11754 14.6919C7.1922 14.6142 7.29204 14.5683 7.39751 14.5632C7.50299 14.5581 7.60651 14.594 7.68782 14.6641C8.63282 15.3848 9.81082 15.6936 10.9568 15.6936C12.1028 15.6936 13.2868 15.4076 14.2408 14.6963C14.296 14.6403 14.3644 14.6005 14.439 14.5807C14.5137 14.5609 14.5921 14.5619 14.6663 14.5836C14.7405 14.6054 14.8079 14.647 14.8617 14.7044C14.9155 14.7618 14.9538 14.8329 14.9728 14.9105C14.989 14.9884 14.9867 15.0692 14.9659 15.1459C14.9452 15.2226 14.9067 15.2928 14.8538 15.3504C14.1698 16.1793 12.3698 16.5432 10.9728 16.5432Z" fill="white"/>
</svg>
