<svg width="28" height="20" viewBox="0 0 28 20" fill="none" xmlns="http://www.w3.org/2000/svg">
<path d="M17.8207 17.4309C17.4571 17.5195 17.0911 17.5982 16.7232 17.6667C14.7264 18.0425 12.6763 18.0348 10.6824 17.644C10.3332 17.576 9.83891 17.4558 9.20173 17.2857L7.11331 20C1.95917 19.8345 0 16.381 0 16.381C0 8.71439 3.35824 2.49903 3.35824 2.49903C6.71649 -0.0701055 9.91147 0.000189224 9.91147 0.000189224L10.8253 1.19065C10.9095 1.17885 10.9943 1.17128 11.0793 1.16798C12.8212 0.937076 14.5865 0.944705 16.3264 1.19065L17.3286 0.000189224C17.3286 0.000189224 20.5259 -0.0701055 23.8819 2.5013C23.8819 2.5013 27.2424 8.71439 27.2424 16.381C27.2424 16.381 25.2583 19.8322 20.1041 20L17.8207 17.4309ZM9.11783 9.31303C7.75503 9.31303 6.67794 10.3334 6.67794 11.5806C6.67794 12.8277 7.7777 13.8481 9.11783 13.8481C10.4784 13.8481 11.5554 12.8277 11.5554 11.5806C11.5781 10.3334 10.4806 9.31303 9.11783 9.31303ZM17.8434 9.31303C16.4828 9.31303 15.4057 10.3334 15.4057 11.5806C15.4057 12.8277 16.5055 13.8481 17.8434 13.8481C19.2062 13.8481 20.2833 12.8277 20.2833 11.5806C20.2833 10.3334 19.2062 9.31303 17.8434 9.31303Z" fill="white"/>
</svg>
